<svg width="24" height="25" viewBox="0 0 24 25" fill="none" xmlns="http://www.w3.org/2000/svg">
<path d="M15.6095 14.0726L15.6095 14.0725L15.6061 14.076L9.09337 20.5887C9.02712 20.6484 8.95821 20.6695 8.90961 20.6695C8.84506 20.6695 8.78445 20.6473 8.73316 20.596C8.63842 20.5012 8.63842 20.3378 8.73316 20.2431L15.2532 13.7231C15.9284 13.0478 15.9284 11.9512 15.2532 11.276L8.73316 4.75598C8.63842 4.66124 8.63842 4.49782 8.73316 4.40308C8.8279 4.30835 8.99132 4.30835 9.08606 4.40308L15.6061 10.9231C16.0231 11.3401 16.2596 11.9033 16.2596 12.4995C16.2596 13.1 16.0303 13.6599 15.6095 14.0726Z" fill="#1E1E1E" stroke="#1E1E1E"/>
</svg>
