<svg width="24" height="24" viewBox="0 0 24 24" fill="none" xmlns="http://www.w3.org/2000/svg">
<path d="M16.2502 3.56V4.01584L16.7041 4.05787C17.9609 4.17424 18.8398 4.60009 19.4288 5.22534C20.0189 5.8518 20.3661 6.72969 20.461 7.83991C20.4606 7.84 20.4604 7.84 20.4602 7.84H20.4602H3.54185C3.54122 7.83968 3.54042 7.83919 3.5396 7.83853C3.6346 6.72896 3.98181 5.85155 4.57168 5.22534C5.16066 4.60009 6.03955 4.17424 7.29633 4.05787L7.75023 4.01584V3.56V2C7.75023 1.86614 7.86637 1.75 8.00023 1.75C8.13409 1.75 8.25023 1.86614 8.25023 2V3.5V4H8.75023H15.2502H15.7502V3.5V2C15.7502 1.86614 15.8664 1.75 16.0002 1.75C16.1341 1.75 16.2502 1.86614 16.2502 2V3.56Z" fill="white" stroke="white"/>
<path d="M9.54448 18.0815L9.55928 18.0682L9.57298 18.0537C9.83498 17.7772 10 17.3962 10 16.9998C10 16.8977 9.98436 16.795 9.97404 16.7327C9.95736 16.6205 9.92566 16.5208 9.88242 16.4278C9.84871 16.3363 9.80399 16.2507 9.75163 16.171C9.71615 16.1141 9.67739 16.0677 9.65472 16.041C9.63897 16.0225 9.62932 16.0114 9.62212 16.0032C9.61348 15.9933 9.60836 15.9874 9.60044 15.9775L9.57488 15.9456L9.54448 15.9182C9.40399 15.7918 9.24625 15.6908 9.07231 15.6183C8.70923 15.467 8.29077 15.467 7.92769 15.6183C7.75375 15.6908 7.59601 15.7918 7.45552 15.9182L7.42512 15.9456L7.39956 15.9775C7.39164 15.9874 7.38652 15.9933 7.37788 16.0032C7.37068 16.0114 7.36103 16.0225 7.34528 16.041C7.32261 16.0677 7.28385 16.1141 7.24837 16.171C7.19601 16.2507 7.15129 16.3363 7.11758 16.4278C7.07434 16.5208 7.04264 16.6205 7.02596 16.7327C7.01564 16.795 7 16.8977 7 16.9998C7 17.3962 7.16502 17.7772 7.42702 18.0537L7.44072 18.0682L7.45552 18.0815C7.59601 18.2079 7.75375 18.3089 7.92769 18.3814C8.09884 18.4527 8.29415 18.4998 8.5 18.4998C8.70585 18.4998 8.90116 18.4527 9.07231 18.3814C9.24625 18.3089 9.40399 18.2079 9.54448 18.0815ZM9.54448 14.5815L9.55928 14.5682L9.57298 14.5537C9.83498 14.2772 10 13.8962 10 13.4998C10 13.4031 9.98541 13.3017 9.97657 13.2402C9.97601 13.2364 9.97548 13.2327 9.97497 13.2291L9.97511 13.2291L9.9732 13.2176C9.95618 13.1156 9.92474 13.0187 9.8824 12.9277C9.84869 12.8363 9.80398 12.7507 9.75163 12.671C9.71615 12.6141 9.67739 12.5677 9.65472 12.541C9.63896 12.5225 9.62932 12.5114 9.62212 12.5032C9.61348 12.4933 9.60836 12.4874 9.60043 12.4775L9.57488 12.4456L9.54448 12.4182C9.40399 12.2918 9.24625 12.1908 9.07231 12.1183C8.70923 11.967 8.29077 11.967 7.92769 12.1183C7.75375 12.1908 7.59601 12.2918 7.45552 12.4182L7.44072 12.4315L7.42702 12.446C7.16502 12.7225 7 13.1035 7 13.4998C7 13.8962 7.16502 14.2772 7.42702 14.5537L7.44072 14.5682L7.45552 14.5815C7.58482 14.6979 7.73428 14.8061 7.93398 14.884C8.10362 14.9538 8.29667 14.9998 8.5 14.9998C8.70585 14.9998 8.90116 14.9527 9.07231 14.8814C9.24625 14.8089 9.40399 14.7079 9.54448 14.5815ZM13.0539 14.5728L13.0637 14.5635L13.073 14.5537C13.335 14.2772 13.5 13.8962 13.5 13.4998C13.5 13.4031 13.4854 13.3017 13.4766 13.2402C13.476 13.2364 13.4755 13.2327 13.475 13.2291L13.4751 13.2291L13.4732 13.2176C13.4562 13.1156 13.4247 13.0187 13.3824 12.9277C13.3475 12.8331 13.3008 12.7446 13.246 12.6625L13.234 12.6444L13.2204 12.6275L13.1604 12.5525L13.1004 12.4775L13.081 12.4533L13.0588 12.4316C12.4873 11.8752 11.5043 11.8685 10.9364 12.4363L10.9169 12.4559L10.8996 12.4775L10.8396 12.5525L10.7796 12.6275L10.766 12.6444L10.754 12.6625C10.6992 12.7446 10.6525 12.8331 10.6176 12.9277C10.5753 13.0187 10.5438 13.1156 10.5268 13.2176L10.5267 13.2176L10.525 13.2291C10.5245 13.2327 10.524 13.2364 10.5234 13.2402C10.5146 13.3017 10.5 13.4031 10.5 13.4998C10.5 13.8962 10.665 14.2772 10.927 14.5537L10.9407 14.5682L10.9555 14.5815C11.0848 14.6979 11.2343 14.8061 11.434 14.884C11.6036 14.9538 11.7967 14.9998 12 14.9998C12.4089 14.9998 12.7793 14.833 13.0539 14.5728ZM4 10.3398H20C20.2679 10.3398 20.5028 10.5611 20.51 10.855V12.5898C20.51 12.8835 20.2441 13.117 19.9497 13.0762C19.6369 13.0209 19.3195 12.9998 19.01 12.9998C15.7039 12.9998 13.01 15.6937 13.01 18.9998C13.01 19.5492 13.2053 20.2566 13.4068 20.8413C13.5158 21.1658 13.2783 21.4998 12.93 21.4998H8C6.3453 21.4998 5.24565 21.0296 4.5539 20.2846C3.85591 19.5329 3.5 18.4232 3.5 16.9998V10.8398C3.5 10.566 3.72614 10.3398 4 10.3398Z" fill="white" stroke="white"/>
<path d="M16.5236 16.5236C17.8883 15.1588 20.1117 15.1588 21.4764 16.5236C22.8412 17.8883 22.8412 20.1117 21.4764 21.4764C20.1117 22.8412 17.8883 22.8412 16.5236 21.4764C15.1588 20.1117 15.1588 17.8883 16.5236 16.5236ZM20.54 20.28C20.8708 20.28 21.192 20.1553 21.4237 19.9137C21.6653 19.682 21.79 19.3608 21.79 19.03C21.79 18.3482 21.2405 17.78 20.54 17.78H20.3V17.57C20.3 16.8839 19.7361 16.32 19.05 16.32C18.3495 16.32 17.8 16.8882 17.8 17.57V17.78H17.55C16.8639 17.78 16.3 18.3439 16.3 19.03C16.3 19.7305 16.8682 20.28 17.55 20.28H17.8V20.56C17.8 21.2461 18.3639 21.81 19.05 21.81C19.3977 21.81 19.7034 21.6737 19.9336 21.4436C20.1637 21.2134 20.3 20.9077 20.3 20.56V20.28H20.54Z" fill="white" stroke="white"/>
</svg>
