<svg width="16" height="16" viewBox="0 0 16 16" fill="none" xmlns="http://www.w3.org/2000/svg">
<path d="M8.00065 14.833C4.23141 14.833 1.16732 11.7689 1.16732 7.99967C1.16732 4.23044 4.23141 1.16634 8.00065 1.16634C11.7699 1.16634 14.834 4.23044 14.834 7.99967C14.834 11.7689 11.7699 14.833 8.00065 14.833ZM8.00065 1.49967C4.41656 1.49967 1.50065 4.41558 1.50065 7.99967C1.50065 11.5838 4.41656 14.4997 8.00065 14.4997C11.5847 14.4997 14.5007 11.5838 14.5007 7.99967C14.5007 4.41558 11.5847 1.49967 8.00065 1.49967Z" fill="#8AB4F8" stroke="#8AB4F8" stroke-width="0.666667"/>
<path d="M8 8.83301C7.91076 8.83301 7.83333 8.75558 7.83333 8.66634V5.33301C7.83333 5.24377 7.91076 5.16634 8 5.16634C8.08924 5.16634 8.16667 5.24377 8.16667 5.33301V8.66634C8.16667 8.75558 8.08924 8.83301 8 8.83301Z" fill="#8AB4F8" stroke="#8AB4F8" stroke-width="0.666667"/>
<path d="M7.69843 10.7999L7.69855 10.7999L7.69501 10.7914C7.67588 10.7455 7.66732 10.7024 7.66732 10.6663C7.66732 10.6302 7.67588 10.587 7.69501 10.5411C7.71133 10.502 7.7337 10.4648 7.76357 10.4292C7.79921 10.3993 7.83636 10.3769 7.87552 10.3606C7.95347 10.3281 8.04783 10.3281 8.12578 10.3606C8.16494 10.3769 8.20209 10.3993 8.23774 10.4292C8.2676 10.4648 8.28998 10.502 8.30629 10.5411C8.32542 10.587 8.33398 10.6302 8.33398 10.6663C8.33398 10.7024 8.32542 10.7455 8.30629 10.7914L8.30617 10.7913L8.30287 10.7999C8.28974 10.8341 8.27191 10.8637 8.23831 10.9029C8.20249 10.933 8.16515 10.9555 8.12578 10.9719C8.07988 10.991 8.03675 10.9996 8.00065 10.9996C7.96455 10.9996 7.92143 10.991 7.87552 10.9719C7.83616 10.9555 7.79881 10.933 7.76299 10.9029C7.72939 10.8637 7.71156 10.8341 7.69843 10.7999Z" fill="#8AB4F8" stroke="#8AB4F8" stroke-width="0.666667"/>
</svg>
