<svg width="41" height="40" viewBox="0 0 41 40" fill="none" xmlns="http://www.w3.org/2000/svg">
<path d="M37.1663 17.5V25.8334C37.1663 31.6667 33.833 34.1667 28.833 34.1667H12.1663C7.16634 34.1667 3.83301 31.6667 3.83301 25.8334V14.1667C3.83301 8.33337 7.16634 5.83337 12.1663 5.83337H23.833" stroke="#0A0A0A" stroke-width="1.5" stroke-miterlimit="10" stroke-linecap="round" stroke-linejoin="round"/>
<path d="M12.167 15L17.3837 19.1667C19.1003 20.5333 21.917 20.5333 23.6337 19.1667L25.6003 17.6" stroke="#0A0A0A" stroke-width="1.5" stroke-miterlimit="10" stroke-linecap="round" stroke-linejoin="round"/>
<path d="M32.9997 13.3333C35.3009 13.3333 37.1663 11.4679 37.1663 9.16667C37.1663 6.86548 35.3009 5 32.9997 5C30.6985 5 28.833 6.86548 28.833 9.16667C28.833 11.4679 30.6985 13.3333 32.9997 13.3333Z" stroke="#0A0A0A" stroke-width="1.5" stroke-miterlimit="10" stroke-linecap="round" stroke-linejoin="round"/>
</svg>
